<?xml version="1.0" encoding="UTF-8" standalone="no"?>
<svg
   xmlnsDc="http://purl.org/dc/elements/1.1/"
   xmlnsCc="http://creativecommons.org/ns#"
   xmlnsRdf="http://www.w3.org/1999/02/22-rdf-syntax-ns#"
   xmlnsSvg="http://www.w3.org/2000/svg"
   xmlns="http://www.w3.org/2000/svg"
   xmlnsSodipodi="http://sodipodi.sourceforge.net/DTD/sodipodi-0.dtd"
   xmlnsInkscape="http://www.inkscape.org/namespaces/inkscape"
   inkscapeVersion="1.1-dev (bc69992, 2020-04-15)"
   sodipodiDocname="logo.svg"
   viewBox="0 0 682.66669 682.66669"
   height="682.66669"
   width="682.66669"
   xmlSpace="preserve"
   id="svg10"
   version="1.1"><metadata
     id="metadata16"><rdfRDF><ccWork
         rdfAbout=""><dcFormat>image/svg+xml</dcFormat><dcType
           rdfResource="http://purl.org/dc/dcmitype/StillImage" /><dcTitle></dcTitle></ccWork></rdfRDF></metadata><defs
     id="defs14"><clipPath
       id="clipPath26"
       clipPathUnits="userSpaceOnUse"><path
         id="path24"
         d="M 0,512 H 512 V 0 H 0 Z" /></clipPath></defs><sodipodiNamedview
     inkscapeCurrent-layer="g20"
     inkscapeWindow-maximized="0"
     inkscapeWindow-y="23"
     inkscapeWindow-x="63"
     inkscapeCy="341.33334"
     inkscapeCx="341.33334"
     inkscapeZoom="0.94775388"
     showgrid="false"
     id="namedview12"
     inkscapeWindow-height="640"
     inkscapeWindow-width="1176"
     inkscapePageshadow="2"
     inkscapePageopacity="0"
     guidetolerance="10"
     gridtolerance="10"
     objecttolerance="10"
     borderopacity="1"
     bordercolor="#666666"
     pagecolor="#ffffff" /><g
     transform="matrix(1.3333333,0,0,-1.3333333,0,682.66667)"
     inkscapeLabel="MahjongLogo"
     inkscapeGroupmode="layer"
     id="g18"><g
       id="g20"><g
         clip-path="url(#clipPath26)"
         id="g22"><g
           transform="translate(379.7314,161.3623)"
           id="g28"><path
             id="path30"
             style="fill:#e39193;fill-opacity:1;fill-rule:nonzero;stroke:none"
             d="m 0,0 c 0,-22.18 -11.54,-45.913 20.939,-45.913 9.377,0 18.976,-0.842 22.87,5.143 9.551,14.744 2.384,84.344 2.384,89.5" /></g><g
           transform="translate(379.7314,159.3623)"
           id="g32"><path
             id="path34"
             style="fill:none;stroke:#231f20;stroke-width:2;stroke-linecap:butt;stroke-linejoin:miter;stroke-miterlimit:4;stroke-dasharray:none;stroke-opacity:1"
             d="m 0,0 c 0,-22.18 -11.54,-45.913 20.939,-45.913 9.377,0 18.976,-0.842 22.87,5.143 9.551,14.744 2.384,84.344 2.384,89.5" /></g><g
           transform="translate(341.3242,155.2344)"
           id="g36"><path
             id="path38"
             style="fill:#f89fa2;fill-opacity:1;fill-rule:nonzero;stroke:#231f20;stroke-width:2;stroke-linecap:butt;stroke-linejoin:miter;stroke-miterlimit:4;stroke-dasharray:none;stroke-opacity:1"
             d="m 0,0 c 0,-22.179 -11.539,-45.913 20.928,-45.913 9.377,0 18.987,-0.842 22.869,5.156 9.54,14.732 1.368,53.256 1.368,58.388" /></g><g
           transform="translate(223.2739,159.4551)"
           id="g40"><path
             id="path42"
             style="fill:#e39193;fill-opacity:1;fill-rule:nonzero;stroke:#231f20;stroke-width:2;stroke-linecap:butt;stroke-linejoin:miter;stroke-miterlimit:4;stroke-dasharray:none;stroke-opacity:1"
             d="m 0,0 c 0,-22.19 9.915,-58.82 -22.57,-58.82 -9.371,0 -18.976,-0.842 -22.852,5.168 -3.858,5.939 -2.396,54.728 -2.396,51.068" /></g><g
           transform="translate(260.0557,142.4326)"
           id="g44"><path
             id="path46"
             style="fill:#f89fa2;fill-opacity:1;fill-rule:nonzero;stroke:#231f20;stroke-width:2;stroke-linecap:butt;stroke-linejoin:miter;stroke-miterlimit:4;stroke-dasharray:none;stroke-opacity:1"
             d="m 0,0 c 0,-22.179 11.54,-45.913 -20.928,-45.913 -9.376,0 -18.987,-0.842 -22.868,5.156 -9.558,14.732 -2.397,45.936 -2.397,51.069" /></g><g
           transform="translate(86.9907,299.9224)"
           id="g48"><path
             id="path50"
             style="fill:#fabfac;fill-opacity:1;fill-rule:nonzero;stroke:#231f20;stroke-width:2;stroke-linecap:butt;stroke-linejoin:miter;stroke-miterlimit:4;stroke-dasharray:none;stroke-opacity:1"
             d="m 0,0 c -6.904,23.108 -57.359,56.231 -57.359,56.231 l 20.127,-67.578" /></g><g
           transform="translate(451.1553,279.9727)"
           id="g52"><path
             id="path54"
             style="fill:#f89fa2;fill-opacity:1;fill-rule:nonzero;stroke:none"
             d="m 0,0 c 0,-76.919 -74.826,-139.294 -167.12,-139.294 -92.358,0 -167.161,62.375 -167.161,139.294 0,76.919 74.803,139.271 167.161,139.271 C -74.826,139.271 0,76.919 0,0" /></g><g
           transform="translate(451.1553,279.9727)"
           id="g56"><path
             id="path58"
             style="fill:none;stroke:#231f20;stroke-width:2;stroke-linecap:butt;stroke-linejoin:miter;stroke-miterlimit:4;stroke-dasharray:none;stroke-opacity:1"
             d="m 0,0 c 0,-76.919 -74.826,-139.294 -167.12,-139.294 -92.358,0 -167.161,62.375 -167.161,139.294 0,76.919 74.803,139.271 167.161,139.271 C -74.826,139.271 0,76.919 0,0 Z" /></g><g
           transform="translate(165.9268,306.8042)"
           id="g60"><path
             id="path62"
             style="fill:#fabfac;fill-opacity:1;fill-rule:nonzero;stroke:#231f20;stroke-width:2;stroke-linecap:butt;stroke-linejoin:miter;stroke-miterlimit:4;stroke-dasharray:none;stroke-opacity:1"
             d="M 0,0 C 6.91,23.103 54.67,50.794 54.67,50.794 L 34.561,-16.777" /></g><g
           transform="translate(77.2456,299.2852)"
           id="g64"><path
             id="path66"
             style="fill:#f46991;fill-opacity:1;fill-rule:nonzero;stroke:#231f20;stroke-width:2;stroke-linecap:butt;stroke-linejoin:miter;stroke-miterlimit:4;stroke-dasharray:none;stroke-opacity:1"
             d="M 0,0 C -3.829,14.884 -31.784,36.232 -31.784,36.232 L -20.635,-7.313" /></g><g
           transform="translate(173.4678,304.2852)"
           id="g68"><path
             id="path70"
             style="fill:#f46991;fill-opacity:1;fill-rule:nonzero;stroke:none"
             d="M 0,0 C 3.835,14.884 31.801,36.232 31.801,36.232 L 20.653,-7.313" /></g><g
           transform="translate(173.4678,303.2852)"
           id="g72"><path
             id="path74"
             style="fill:none;stroke:#231f20;stroke-width:2;stroke-linecap:butt;stroke-linejoin:miter;stroke-miterlimit:4;stroke-dasharray:none;stroke-opacity:1"
             d="M 0,0 C 3.835,14.884 31.801,36.232 31.801,36.232 L 20.653,-7.313" /></g><g
           transform="translate(239.5957,232.5869)"
           id="g76"><path
             id="path78"
             style="fill:#f89fa2;fill-opacity:1;fill-rule:nonzero;stroke:none"
             d="m 0,0 c 4.478,-48.778 -44.288,-93.136 -108.902,-99.063 -64.614,-5.928 -120.634,28.819 -125.112,77.609 -4.478,48.8 44.288,93.17 108.902,99.08 C -60.499,83.554 -4.478,48.8 0,0" /></g><g
           transform="translate(239.5957,232.5869)"
           id="g80"><path
             id="path82"
             style="fill:none;stroke:#231f20;stroke-width:2;stroke-linecap:butt;stroke-linejoin:miter;stroke-miterlimit:4;stroke-dasharray:none;stroke-opacity:1"
             d="m 0,0 c 4.478,-48.778 -44.288,-93.136 -108.902,-99.063 -64.614,-5.928 -120.634,28.819 -125.112,77.609 -4.478,48.8 44.288,93.17 108.902,99.08 C -60.499,83.554 -4.478,48.8 0,0 Z" /></g><g
           transform="translate(95.6602,251.79)"
           id="g84"><path
             id="path86"
             style="fill:#ffffff;fill-opacity:1;fill-rule:nonzero;stroke:none"
             d="m 0,0 c 0,-6.261 -5.074,-11.353 -11.347,-11.353 -6.272,0 -11.364,5.092 -11.364,11.353 0,6.272 5.092,11.364 11.364,11.364 C -5.074,11.364 0,6.272 0,0" /></g><g
           transform="translate(95.6602,251.79)"
           id="g88"><path
             id="path90"
             style="fill:none;stroke:#231f20;stroke-width:2;stroke-linecap:butt;stroke-linejoin:miter;stroke-miterlimit:4;stroke-dasharray:none;stroke-opacity:1"
             d="m 0,0 c 0,-6.261 -5.074,-11.353 -11.347,-11.353 -6.272,0 -11.364,5.092 -11.364,11.353 0,6.272 5.092,11.364 11.364,11.364 C -5.074,11.364 0,6.272 0,0 Z" /></g><g
           transform="translate(145.2852,255.9229)"
           id="g92"><path
             id="path94"
             style="fill:#ffffff;fill-opacity:1;fill-rule:nonzero;stroke:none"
             d="m 0,0 c 0,-6.267 -5.074,-11.364 -11.347,-11.364 -6.278,0 -11.364,5.097 -11.364,11.364 0,6.272 5.086,11.347 11.364,11.347 C -5.074,11.347 0,6.272 0,0" /></g><g
           transform="translate(145.2852,255.9229)"
           id="g96"><path
             id="path98"
             style="fill:none;stroke:#231f20;stroke-width:2;stroke-linecap:butt;stroke-linejoin:miter;stroke-miterlimit:4;stroke-dasharray:none;stroke-opacity:1"
             d="m 0,0 c 0,-6.267 -5.074,-11.364 -11.347,-11.364 -6.278,0 -11.364,5.097 -11.364,11.364 0,6.272 5.086,11.347 11.364,11.347 C -5.074,11.347 0,6.272 0,0 Z" /></g><g
           transform="translate(152.2769,192.9053)"
           id="g100"><path
             id="path102"
             style="fill:#fabfac;fill-opacity:1;fill-rule:nonzero;stroke:none"
             d="m 0,0 c 1.041,-11.294 -15.322,-22.027 -36.571,-23.979 -21.244,-1.954 -39.308,5.623 -40.337,16.906 -1.029,11.305 15.334,22.014 36.572,23.979 C -19.081,18.87 -1.041,11.271 0,0" /></g><g
           transform="translate(152.2769,192.9053)"
           id="g104"><path
             id="path106"
             style="fill:none;stroke:#231f20;stroke-width:2;stroke-linecap:butt;stroke-linejoin:miter;stroke-miterlimit:4;stroke-dasharray:none;stroke-opacity:1"
             d="m 0,0 c 1.041,-11.294 -15.322,-22.027 -36.571,-23.979 -21.244,-1.954 -39.308,5.623 -40.337,16.906 -1.029,11.305 15.334,22.014 36.572,23.979 C -19.081,18.87 -1.041,11.271 0,0 Z" /></g><g
           transform="translate(107.1997,187.3047)"
           id="g108"><path
             id="path110"
             style="fill:#f46991;fill-opacity:1;fill-rule:nonzero;stroke:none"
             d="m 0,0 c 0,-2.888 -2.356,-5.237 -5.244,-5.237 -2.893,0 -5.243,2.349 -5.243,5.237 0,2.899 2.35,5.25 5.243,5.25 C -2.356,5.25 0,2.899 0,0" /></g><g
           transform="translate(107.1997,187.3047)"
           id="g112"><path
             id="path114"
             style="fill:none;stroke:#231f20;stroke-width:2;stroke-linecap:butt;stroke-linejoin:miter;stroke-miterlimit:4;stroke-dasharray:none;stroke-opacity:1"
             d="m 0,0 c 0,-2.888 -2.356,-5.237 -5.244,-5.237 -2.893,0 -5.243,2.349 -5.243,5.237 0,2.899 2.35,5.25 5.243,5.25 C -2.356,5.25 0,2.899 0,0 Z" /></g><g
           transform="translate(130.1152,189.2227)"
           id="g116"><path
             id="path118"
             style="fill:#f46991;fill-opacity:1;fill-rule:nonzero;stroke:none"
             d="m 0,0 c 0,-2.9 -2.333,-5.25 -5.232,-5.25 -2.893,0 -5.244,2.35 -5.244,5.25 0,2.888 2.351,5.226 5.244,5.226 C -2.333,5.226 0,2.888 0,0" /></g><g
           transform="translate(130.1152,189.2227)"
           id="g120"><path
             id="path122"
             style="fill:none;stroke:#231f20;stroke-width:2;stroke-linecap:butt;stroke-linejoin:miter;stroke-miterlimit:4;stroke-dasharray:none;stroke-opacity:1"
             d="m 0,0 c 0,-2.9 -2.333,-5.25 -5.232,-5.25 -2.893,0 -5.244,2.35 -5.244,5.25 0,2.888 2.351,5.226 5.244,5.226 C -2.333,5.226 0,2.888 0,0 Z" /></g><g
           transform="translate(195.6177,113.0283)"
           id="g124"><path
             id="path126"
             style="fill:#ffffff;fill-opacity:1;fill-rule:nonzero;stroke:#231f20;stroke-width:2;stroke-linecap:butt;stroke-linejoin:miter;stroke-miterlimit:4;stroke-dasharray:none;stroke-opacity:1"
             d="M 0,0 C 0,-3.613 -1.029,-12.394 -1.029,-12.394" /></g><g
           transform="translate(234.0186,109.415)"
           id="g128"><path
             id="path130"
             style="fill:#ffffff;fill-opacity:1;fill-rule:nonzero;stroke:#231f20;stroke-width:2;stroke-linecap:butt;stroke-linejoin:miter;stroke-miterlimit:4;stroke-dasharray:none;stroke-opacity:1"
             d="M 0,0 C 0,-3.168 -1.017,-10.826 -1.017,-10.826" /></g><g
           transform="translate(364.7656,121.2939)"
           id="g132"><path
             id="path134"
             style="fill:#ffffff;fill-opacity:1;fill-rule:nonzero;stroke:#231f20;stroke-width:2;stroke-linecap:butt;stroke-linejoin:miter;stroke-miterlimit:4;stroke-dasharray:none;stroke-opacity:1"
             d="M 0,0 C 0,-3.612 -1.017,-12.382 -1.017,-12.382" /></g><g
           transform="translate(406.54,125.4092)"
           id="g136"><path
             id="path138"
             style="fill:#ffffff;fill-opacity:1;fill-rule:nonzero;stroke:#231f20;stroke-width:2;stroke-linecap:butt;stroke-linejoin:miter;stroke-miterlimit:4;stroke-dasharray:none;stroke-opacity:1"
             d="M 0,0 C 0,-3.601 -1.028,-12.381 -1.028,-12.381" /></g><g
           transform="translate(428.2402,351.6484)"
           id="g140"><path
             id="path142"
             style="fill:none;stroke:#f89fa2;stroke-width:2;stroke-linecap:butt;stroke-linejoin:miter;stroke-miterlimit:4;stroke-dasharray:none;stroke-opacity:1;fill-opacity:1"
             d="M 0,0 C 25.769,13.586 24.692,45.744 7.833,36.846 -9.015,27.978 17.572,9.277 42.675,22.506 61.159,32.251 60.41,55.348 48.298,48.965 36.209,42.581 55.29,29.153 73.318,38.659 c 8.699,4.583 7.53,9.335 7.681,10.727" /></g></g></g></g></svg>
